<svg id="Laag_1" data-name="Laag 1" xmlns="http://www.w3.org/2000/svg" viewBox="0 0 513.56 151.19"><title>logo_immax</title><path d="M518.23,85.24v2.19H485.42V85.24c8.55-1.08,2.42-9.54.26-12.77L448.81,18.58c-7.53-10.29-11.23-10.51-15.7-10.51V5.76h35.1V7.81c-5,0-8.68,3.23-1.4,13.88l36,53.65c7,9.93,10.34,9.66,15.45,9.9" transform="translate(-4.75 -4)" fill="#fff"/><path d="M464.87,60.38c-7.79,13.88-16.73,24.86.13,24.86v2.19H432.06V85.24c6.64,0,11.74,1,31.4-26.18Z" transform="translate(-4.75 -4)" fill="#f69f18"/><path d="M4.75,8.09H7.64a11.31,11.31,0,0,1,5.53,1.45,5.36,5.36,0,0,1,2.47,2.59q.78,2,.78,8.18V73.05q0,7.35-1.44,9.27c-1.53,2-4,3-7.34,3H4.75V87.5h35V85.27H36.77a11,11,0,0,1-5.48-1.45,5.37,5.37,0,0,1-2.52-2.58q-.8-2-.79-8.19V20.31Q28,13,29.49,11c1.52-2,3.95-2.95,7.28-2.95h2.95V5.86h-35Z" transform="translate(-4.75 -4)" fill="#fff"/><path d="M119.92,69.74,90.31,5.86H67.19V8.09q5,0,7.25,1.18a6.61,6.61,0,0,1,3.1,2.92q1.21,2.4,1.21,7.82V73.35c0,4.58-.44,7.5-1.32,8.79q-2.18,3.14-7.35,3.13H67.19V87.5H95.61V85.27H92.72c-3.22,0-5.56-.84-7-2.53q-1.62-1.86-1.62-9.39V18.81L115.59,87.5h2l31.48-68.69V73.35c0,4.58-.44,7.5-1.32,8.79-1.41,2.09-3.85,3.13-7.35,3.13H137.5V87.5h34.68V85.27h-2.83q-4.82,0-7-2.53-1.68-1.86-1.68-9.39V20q0-6.86,1.32-8.79c1.45-2.08,3.92-3.13,7.41-3.13h2.83V5.86H149.06Z" transform="translate(-4.75 -4)" fill="#fff"/><path d="M252,69.74,222.34,5.86H199.23V8.09q5,0,7.25,1.18a6.61,6.61,0,0,1,3.1,2.92q1.2,2.4,1.2,7.82V73.35c0,4.58-.44,7.5-1.32,8.79q-2.16,3.14-7.34,3.13h-2.89V87.5h28.41V85.27h-2.89q-4.81,0-7-2.53-1.64-1.86-1.63-9.39V18.81L247.63,87.5h2L281.1,18.81V73.35c0,4.58-.45,7.5-1.33,8.79q-2.1,3.14-7.34,3.13h-2.89V87.5h34.67V85.27h-2.83q-4.81,0-7-2.53-1.69-1.86-1.69-9.39V20c0-4.57.45-7.5,1.33-8.79,1.44-2.08,3.91-3.13,7.4-3.13h2.83V5.86H281.1Z" transform="translate(-4.75 -4)" fill="#fff"/><path d="M405.15,82.53q-2.81-2.44-6.23-10.63L370.5,4h-2.1l-5.09,11.9,2.86,6.82,13.85,33H346.3l-6.62,15.47q-3.74,8.85-6.8,11.74c-1,1-3.21,1.75-6.62,2.35V87.5H352V85.27q-5.9-.42-7.67-1.84a4.1,4.1,0,0,1-1.78-3.28q0-2.34,2.05-7.1l5.54-12.88h31.6l4.94,11.73q2.4,5.73,2.4,8.37a4.18,4.18,0,0,1-1.71,3.37q-1.71,1.39-6.59,1.63V87.5h32.2V85.27a12.66,12.66,0,0,1-7.79-2.74" transform="translate(-4.75 -4)" fill="#fff"/><path d="M484.64,7.84l.14-2h33.53l-.14,2c-7.91,0-11.95-.12-30.46,25.74l-1.41-1.2c7-11.73,15.45-24.54-1.66-24.54" transform="translate(-4.75 -4)" fill="#f69f18"/><path d="M71.85,133.74v21H67.24v-21Z" transform="translate(-4.75 -4)" fill="#fff"/><path d="M105.91,133.74l4.9,14.43h.06l4.64-14.43H122v21h-4.32V139.85h-.06l-5.14,14.87h-3.56L103.79,140h-.06v14.72H99.41v-21Z" transform="translate(-4.75 -4)" fill="#fff"/><path d="M156.07,133.74l4.9,14.43H161l4.64-14.43h6.5v21h-4.32V139.85h-.06l-5.14,14.87h-3.56L154,140h-.06v14.72h-4.32v-21Z" transform="translate(-4.75 -4)" fill="#fff"/><path d="M199.52,140a10.43,10.43,0,0,1,2-3.51,9.09,9.09,0,0,1,3.25-2.35,11.38,11.38,0,0,1,8.68,0,9.2,9.2,0,0,1,3.23,2.35,10.43,10.43,0,0,1,2,3.51,13.07,13.07,0,0,1,.71,4.36,12.73,12.73,0,0,1-.71,4.28,10.25,10.25,0,0,1-2,3.45,9.35,9.35,0,0,1-3.23,2.31,11.76,11.76,0,0,1-8.68,0,9.25,9.25,0,0,1-3.25-2.31,10.25,10.25,0,0,1-2-3.45,12.72,12.72,0,0,1-.7-4.28A13.07,13.07,0,0,1,199.52,140Zm4.22,6.93a7,7,0,0,0,1,2.25,5,5,0,0,0,1.77,1.6,5.37,5.37,0,0,0,2.64.6,5.43,5.43,0,0,0,2.65-.6,5,5,0,0,0,1.76-1.6,6.81,6.81,0,0,0,1-2.25,10.45,10.45,0,0,0,.31-2.57,11.21,11.21,0,0,0-.31-2.67,7,7,0,0,0-1-2.31,5.07,5.07,0,0,0-1.76-1.62,5.43,5.43,0,0,0-2.65-.6,5.37,5.37,0,0,0-2.64.6,5.1,5.1,0,0,0-1.77,1.62,7.16,7.16,0,0,0-1,2.31,11.21,11.21,0,0,0-.31,2.67A10.45,10.45,0,0,0,203.74,146.89Z" transform="translate(-4.75 -4)" fill="#fff"/><path d="M256,133.74a12.76,12.76,0,0,1,2.73.27,5.8,5.8,0,0,1,2.12.86,4.17,4.17,0,0,1,1.37,1.6,5.7,5.7,0,0,1,.48,2.47,4.62,4.62,0,0,1-.72,2.65,5.26,5.26,0,0,1-2.13,1.73,5,5,0,0,1,2.89,2,6.38,6.38,0,0,1,.34,6.11,5.31,5.31,0,0,1-1.66,1.89,7.41,7.41,0,0,1-2.38,1.09,10.89,10.89,0,0,1-2.74.35H246.1v-21Zm-.59,8.49a3.32,3.32,0,0,0,2-.58,2.23,2.23,0,0,0,.79-1.91,2.44,2.44,0,0,0-.26-1.21,1.92,1.92,0,0,0-.71-.73,2.9,2.9,0,0,0-1-.37,6.59,6.59,0,0,0-1.19-.1h-4.32v4.9Zm.27,8.91a6.72,6.72,0,0,0,1.29-.13,3.22,3.22,0,0,0,1.09-.45,2.23,2.23,0,0,0,.75-.83,3,3,0,0,0,.28-1.35,2.74,2.74,0,0,0-.91-2.31,3.89,3.89,0,0,0-2.41-.69h-5v5.76Z" transform="translate(-4.75 -4)" fill="#fff"/><path d="M294.9,133.74v21h-4.61v-21Z" transform="translate(-4.75 -4)" fill="#fff"/><path d="M327.08,133.74v17.1h10.23v3.88H322.47v-21Z" transform="translate(-4.75 -4)" fill="#fff"/><path d="M368,133.74v21H363.4v-21Z" transform="translate(-4.75 -4)" fill="#fff"/><path d="M411.27,133.74v3.88H400.19v4.5h10.17v3.58H400.19v5.14H411.5v3.88H395.57v-21ZM402,128v3.44h-4V128Zm6,0v3.44h-4V128Z" transform="translate(-4.75 -4)" fill="#fff"/><path d="M442.71,133.74l8.75,14.08h.06V133.74h4.32v21h-4.61l-8.73-14h-.06v14h-4.32v-21Z" transform="translate(-4.75 -4)" fill="#fff"/></svg>